<svg width="28" height="28" viewBox="0 0 28 28" fill="none" xmlns="http://www.w3.org/2000/svg">
<path d="M17.8033 25.9583H10.1967C4.46834 25.9583 2.01834 23.5083 2.01834 17.78V17.6283C2.01834 12.4483 4.06001 9.95166 8.63334 9.51999C9.10001 9.48499 9.54334 9.83499 9.59001 10.3133C9.63668 10.7917 9.28667 11.2233 8.79667 11.27C5.13334 11.6083 3.76834 13.335 3.76834 17.64V17.7917C3.76834 22.54 5.44834 24.22 10.1967 24.22H17.8033C22.5517 24.22 24.2317 22.54 24.2317 17.7917V17.64C24.2317 13.3117 22.8433 11.585 19.11 11.27C18.6317 11.2233 18.27 10.8033 18.3167 10.325C18.3633 9.84666 18.7717 9.48499 19.2617 9.53166C23.905 9.92832 25.9817 12.4367 25.9817 17.6517V17.8033C25.9817 23.5083 23.5317 25.9583 17.8033 25.9583Z" fill="#212529" style="fill:#212529;fill:color(display-p3 0.1294 0.1451 0.1608);fill-opacity:1;"/>
<path d="M14 18.375C13.5217 18.375 13.125 17.9783 13.125 17.5V4.22333C13.125 3.74499 13.5217 3.34833 14 3.34833C14.4783 3.34833 14.875 3.74499 14.875 4.22333V17.5C14.875 17.9783 14.4783 18.375 14 18.375Z" fill="#212529" style="fill:#212529;fill:color(display-p3 0.1294 0.1451 0.1608);fill-opacity:1;"/>
<path d="M17.9083 7.7C17.6867 7.7 17.465 7.61834 17.29 7.44334L14 4.15334L10.71 7.44334C10.3717 7.78167 9.81166 7.78167 9.47332 7.44334C9.13499 7.105 9.13499 6.545 9.47332 6.20667L13.3817 2.29834C13.72 1.96 14.28 1.96 14.6183 2.29834L18.5267 6.20667C18.865 6.545 18.865 7.105 18.5267 7.44334C18.3633 7.61834 18.13 7.7 17.9083 7.7Z" fill="#212529" style="fill:#212529;fill:color(display-p3 0.1294 0.1451 0.1608);fill-opacity:1;"/>
</svg>
