<svg width="28" height="28" viewBox="0 0 28 28" fill="none" xmlns="http://www.w3.org/2000/svg">
<path d="M24.5 23.625H12.8333C12.355 23.625 11.9583 23.2283 11.9583 22.75C11.9583 22.2717 12.355 21.875 12.8333 21.875H24.5C24.9783 21.875 25.375 22.2717 25.375 22.75C25.375 23.2283 24.9783 23.625 24.5 23.625Z" fill="#212529" style="fill:#212529;fill:color(display-p3 0.1294 0.1451 0.1608);fill-opacity:1;"/>
<path d="M24.5 15.4583H12.8333C12.355 15.4583 11.9583 15.0616 11.9583 14.5833C11.9583 14.105 12.355 13.7083 12.8333 13.7083H24.5C24.9783 13.7083 25.375 14.105 25.375 14.5833C25.375 15.0616 24.9783 15.4583 24.5 15.4583Z" fill="#212529" style="fill:#212529;fill:color(display-p3 0.1294 0.1451 0.1608);fill-opacity:1;"/>
<path d="M24.5 7.29169H12.8333C12.355 7.29169 11.9583 6.89502 11.9583 6.41669C11.9583 5.93835 12.355 5.54169 12.8333 5.54169H24.5C24.9783 5.54169 25.375 5.93835 25.375 6.41669C25.375 6.89502 24.9783 7.29169 24.5 7.29169Z" fill="#212529" style="fill:#212529;fill:color(display-p3 0.1294 0.1451 0.1608);fill-opacity:1;"/>
<path d="M4.66668 8.45833C4.44501 8.45833 4.22335 8.37666 4.04835 8.20166L2.88168 7.03499C2.54335 6.69666 2.54335 6.13666 2.88168 5.79833C3.22001 5.45999 3.78001 5.45999 4.11835 5.79833L4.66668 6.34666L7.54835 3.46499C7.88668 3.12666 8.44668 3.12666 8.78501 3.46499C9.12335 3.80333 9.12335 4.36333 8.78501 4.70166L5.28501 8.20166C5.11001 8.37666 4.88835 8.45833 4.66668 8.45833Z" fill="#212529" style="fill:#212529;fill:color(display-p3 0.1294 0.1451 0.1608);fill-opacity:1;"/>
<path d="M4.66668 16.625C4.44501 16.625 4.22335 16.5433 4.04835 16.3683L2.88168 15.2017C2.54335 14.8633 2.54335 14.3033 2.88168 13.965C3.22001 13.6267 3.78001 13.6267 4.11835 13.965L4.66668 14.5133L7.54835 11.6317C7.88668 11.2933 8.44668 11.2933 8.78501 11.6317C9.12335 11.97 9.12335 12.53 8.78501 12.8683L5.28501 16.3683C5.11001 16.5433 4.88835 16.625 4.66668 16.625Z" fill="#212529" style="fill:#212529;fill:color(display-p3 0.1294 0.1451 0.1608);fill-opacity:1;"/>
<path d="M4.66668 24.7916C4.44501 24.7916 4.22335 24.71 4.04835 24.535L2.88168 23.3683C2.54335 23.03 2.54335 22.47 2.88168 22.1316C3.22001 21.7933 3.78001 21.7933 4.11835 22.1316L4.66668 22.68L7.54835 19.7983C7.88668 19.46 8.44668 19.46 8.78501 19.7983C9.12335 20.1366 9.12335 20.6966 8.78501 21.035L5.28501 24.535C5.11001 24.71 4.88835 24.7916 4.66668 24.7916Z" fill="#212529" style="fill:#212529;fill:color(display-p3 0.1294 0.1451 0.1608);fill-opacity:1;"/>
</svg>
