<svg width="16" height="16" viewBox="0 0 16 16" fill="none" xmlns="http://www.w3.org/2000/svg">
<path d="M3.33333 6.66666C2.6 6.66666 2 7.26666 2 8C2 8.73333 2.6 9.33333 3.33333 9.33333C4.06667 9.33333 4.66667 8.73333 4.66667 8C4.66667 7.26666 4.06667 6.66666 3.33333 6.66666Z" stroke="#212529" style="stroke:#212529;stroke:color(display-p3 0.1294 0.1451 0.1608);stroke-opacity:1;" stroke-width="1.5"/>
<path d="M12.6667 6.66666C11.9333 6.66666 11.3333 7.26666 11.3333 8C11.3333 8.73333 11.9333 9.33333 12.6667 9.33333C13.4 9.33333 14 8.73333 14 8C14 7.26666 13.4 6.66666 12.6667 6.66666Z" stroke="#212529" style="stroke:#212529;stroke:color(display-p3 0.1294 0.1451 0.1608);stroke-opacity:1;" stroke-width="1.5"/>
<path d="M8 6.66666C7.26667 6.66666 6.66667 7.26666 6.66667 8C6.66667 8.73333 7.26667 9.33333 8 9.33333C8.73333 9.33333 9.33333 8.73333 9.33333 8C9.33333 7.26666 8.73333 6.66666 8 6.66666Z" stroke="#212529" style="stroke:#212529;stroke:color(display-p3 0.1294 0.1451 0.1608);stroke-opacity:1;" stroke-width="1.5"/>
</svg>
