<svg width="28" height="28" viewBox="0 0 28 28" fill="none" xmlns="http://www.w3.org/2000/svg">
<path d="M17.5 26.5417H10.5C4.16501 26.5417 1.45834 23.835 1.45834 17.5V10.5C1.45834 4.165 4.16501 1.45833 10.5 1.45833H16.3333C16.8117 1.45833 17.2083 1.85499 17.2083 2.33333C17.2083 2.81166 16.8117 3.20833 16.3333 3.20833H10.5C5.12168 3.20833 3.20834 5.12166 3.20834 10.5V17.5C3.20834 22.8783 5.12168 24.7917 10.5 24.7917H17.5C22.8783 24.7917 24.7917 22.8783 24.7917 17.5V11.6667C24.7917 11.1883 25.1883 10.7917 25.6667 10.7917C26.145 10.7917 26.5417 11.1883 26.5417 11.6667V17.5C26.5417 23.835 23.835 26.5417 17.5 26.5417Z" fill="#212529" style="fill:#212529;fill:color(display-p3 0.1294 0.1451 0.1608);fill-opacity:1;"/>
<path d="M25.6667 12.5417H21C17.01 12.5417 15.4583 10.99 15.4583 7V2.33333C15.4583 1.98333 15.6683 1.65666 15.995 1.52833C16.3217 1.38833 16.695 1.47 16.9517 1.715L26.285 11.0483C26.53 11.2933 26.6117 11.6783 26.4717 12.005C26.3317 12.3317 26.0167 12.5417 25.6667 12.5417ZM17.2083 4.445V7C17.2083 10.01 17.99 10.7917 21 10.7917H23.555L17.2083 4.445Z" fill="#212529" style="fill:#212529;fill:color(display-p3 0.1294 0.1451 0.1608);fill-opacity:1;"/>
<path d="M15.1667 16.0417H8.16666C7.68832 16.0417 7.29166 15.645 7.29166 15.1667C7.29166 14.6883 7.68832 14.2917 8.16666 14.2917H15.1667C15.645 14.2917 16.0417 14.6883 16.0417 15.1667C16.0417 15.645 15.645 16.0417 15.1667 16.0417Z" fill="#212529" style="fill:#212529;fill:color(display-p3 0.1294 0.1451 0.1608);fill-opacity:1;"/>
<path d="M12.8333 20.7083H8.16666C7.68832 20.7083 7.29166 20.3117 7.29166 19.8333C7.29166 19.355 7.68832 18.9583 8.16666 18.9583H12.8333C13.3117 18.9583 13.7083 19.355 13.7083 19.8333C13.7083 20.3117 13.3117 20.7083 12.8333 20.7083Z" fill="#212529" style="fill:#212529;fill:color(display-p3 0.1294 0.1451 0.1608);fill-opacity:1;"/>
</svg>
