<svg width="28" height="28" viewBox="0 0 28 28" fill="none" xmlns="http://www.w3.org/2000/svg">
<path d="M19.8333 26.5417H8.16668C3.02168 26.5417 1.45834 24.9783 1.45834 19.8333V8.16668C1.45834 3.02168 3.02168 1.45834 8.16668 1.45834H9.91668C11.9583 1.45834 12.6 2.12334 13.4167 3.20834L15.1667 5.54168C15.5517 6.05501 15.61 6.12501 16.3333 6.12501H19.8333C24.9783 6.12501 26.5417 7.68834 26.5417 12.8333V19.8333C26.5417 24.9783 24.9783 26.5417 19.8333 26.5417ZM8.16668 3.20834C4.00168 3.20834 3.20834 4.00168 3.20834 8.16668V19.8333C3.20834 23.9983 4.00168 24.7917 8.16668 24.7917H19.8333C23.9983 24.7917 24.7917 23.9983 24.7917 19.8333V12.8333C24.7917 8.66834 23.9983 7.87501 19.8333 7.87501H16.3333C14.84 7.87501 14.35 7.36168 13.7667 6.59168L12.0167 4.25834C11.41 3.45334 11.235 3.20834 9.91668 3.20834H8.16668Z" fill="#212529" style="fill:#212529;fill:color(display-p3 0.1294 0.1451 0.1608);fill-opacity:1;"/>
</svg>
