<svg width="28" height="28" viewBox="0 0 28 28" fill="none" xmlns="http://www.w3.org/2000/svg">
<path d="M18.0833 26.5417H9.91668C5.58834 26.5417 3.20834 24.1617 3.20834 19.8333V8.16668C3.20834 3.83834 5.58834 1.45834 9.91668 1.45834H18.0833C22.3417 1.45834 24.7917 3.90834 24.7917 8.16668V9.33334C24.7917 10.4533 23.87 11.375 22.75 11.375C22.5867 11.375 22.4583 11.5033 22.4583 11.6667V14.1983C22.4583 14.5833 22.61 14.9567 22.89 15.225L23.8583 16.1933C24.465 16.8 24.8033 17.605 24.8033 18.4567V19.8333C24.7917 24.0917 22.3417 26.5417 18.0833 26.5417ZM9.91668 3.20834C6.58001 3.20834 4.95834 4.83001 4.95834 8.16668V19.8333C4.95834 23.17 6.58001 24.7917 9.91668 24.7917H18.0833C21.3733 24.7917 23.0417 23.1233 23.0417 19.8333V18.4683C23.0417 18.0833 22.89 17.71 22.61 17.4417L21.6417 16.4733C21.035 15.8667 20.6967 15.0617 20.6967 14.21V11.6667C20.6967 10.5467 21.6183 9.62501 22.7383 9.62501C22.9017 9.62501 23.03 9.49668 23.03 9.33334V8.16668C23.03 4.87668 21.3617 3.20834 18.0717 3.20834H9.91668Z" fill="#212529" style="fill:#212529;fill:color(display-p3 0.1294 0.1451 0.1608);fill-opacity:1;"/>
<path d="M18.6783 26.5067C18.2 26.5067 17.8033 26.1217 17.8033 25.6433L17.7683 22.155C17.7683 21.35 17.1033 20.7083 16.31 20.7083H11.6433C11.2583 20.7083 10.885 20.86 10.605 21.14C10.3367 21.4083 10.185 21.7817 10.185 22.1667L10.1967 25.6317C10.1967 26.11 9.81166 26.5067 9.32166 26.5067C8.84333 26.5067 8.44666 26.1217 8.44666 25.6317L8.435 22.1667C8.435 21.3033 8.76166 20.4983 9.36833 19.8917C9.975 19.285 10.78 18.9467 11.6433 18.9467H16.3217C18.0833 18.9467 19.5183 20.3817 19.53 22.1317L19.565 25.6083C19.565 26.11 19.1683 26.5067 18.6783 26.5067C18.69 26.5067 18.6783 26.5067 18.6783 26.5067Z" fill="#212529" style="fill:#212529;fill:color(display-p3 0.1294 0.1451 0.1608);fill-opacity:1;"/>
<path d="M16.2983 9.95166H9.29834C8.82001 9.95166 8.42334 9.55499 8.42334 9.07666C8.42334 8.59833 8.82001 8.20166 9.29834 8.20166H16.2983C16.7767 8.20166 17.1733 8.59833 17.1733 9.07666C17.1733 9.55499 16.7883 9.95166 16.2983 9.95166Z" fill="#212529" style="fill:#212529;fill:color(display-p3 0.1294 0.1451 0.1608);fill-opacity:1;"/>
</svg>
