<svg width="28" height="28" viewBox="0 0 28 28" fill="none" xmlns="http://www.w3.org/2000/svg">
<path d="M13.4167 25.375C6.82501 25.375 1.45834 20.0083 1.45834 13.4166C1.45834 6.82498 6.82501 1.45831 13.4167 1.45831C20.0083 1.45831 25.375 6.82498 25.375 13.4166C25.375 20.0083 20.0083 25.375 13.4167 25.375ZM13.4167 3.20831C7.78168 3.20831 3.20834 7.79331 3.20834 13.4166C3.20834 19.04 7.78168 23.625 13.4167 23.625C19.0517 23.625 23.625 19.04 23.625 13.4166C23.625 7.79331 19.0517 3.20831 13.4167 3.20831Z" fill="#212529" style="fill:#212529;fill:color(display-p3 0.1294 0.1451 0.1608);fill-opacity:1;"/>
<path d="M25.6667 26.5417C25.445 26.5417 25.2233 26.46 25.0483 26.285L22.715 23.9517C22.3767 23.6133 22.3767 23.0533 22.715 22.715C23.0533 22.3767 23.6133 22.3767 23.9517 22.715L26.285 25.0483C26.6233 25.3867 26.6233 25.9467 26.285 26.285C26.11 26.46 25.8883 26.5417 25.6667 26.5417Z" fill="#212529" style="fill:#212529;fill:color(display-p3 0.1294 0.1451 0.1608);fill-opacity:1;"/>
</svg>
