<svg width="28" height="28" viewBox="0 0 28 28" fill="none" xmlns="http://www.w3.org/2000/svg">
<path d="M20.1717 4.83L20.09 9.25167C20.0783 9.85833 20.4633 10.6633 20.9533 11.025L23.8467 13.2183C25.7017 14.6183 25.3983 16.3333 23.1817 17.0333L19.4133 18.2117C18.7833 18.41 18.1183 19.0983 17.955 19.74L17.0567 23.17C16.345 25.8767 14.5717 26.145 13.1017 23.765L11.0483 20.44C10.675 19.8333 9.78833 19.3783 9.08833 19.4133L5.19167 19.6117C2.40333 19.7517 1.61 18.1417 3.43 16.0183L5.74 13.335C6.17167 12.8333 6.37 11.9 6.17167 11.27L4.98167 7.49C4.29333 5.27333 5.53 4.04833 7.735 4.77167L11.1767 5.90333C11.76 6.09 12.635 5.96167 13.125 5.6L16.7183 3.01C18.6667 1.62167 20.2183 2.43833 20.1717 4.83Z" fill="white" style="fill:white;fill-opacity:1;"/>
<path d="M25.0133 23.8817L21.4783 20.3467C21.14 20.0083 20.58 20.0083 20.2417 20.3467C19.9033 20.685 19.9033 21.245 20.2417 21.5833L23.7767 25.1183C23.9517 25.2933 24.1733 25.375 24.395 25.375C24.6167 25.375 24.8383 25.2933 25.0133 25.1183C25.3517 24.78 25.3517 24.22 25.0133 23.8817Z" fill="white" style="fill:white;fill-opacity:1;"/>
</svg>
