<svg width="24" height="24" viewBox="0 0 24 24" fill="none" xmlns="http://www.w3.org/2000/svg">
<path d="M19.9999 19.26H10.9299C10.4799 19.26 10.1099 18.89 10.1099 18.44C10.1099 17.99 10.4799 17.62 10.9299 17.62H19.9999C20.4499 17.62 20.8199 17.99 20.8199 18.44C20.8199 18.9 20.4499 19.26 19.9999 19.26Z" fill="#212529" style="fill:#212529;fill:color(display-p3 0.1294 0.1451 0.1608);fill-opacity:1;"/>
<path d="M19.9999 12.97H10.9299C10.4799 12.97 10.1099 12.6 10.1099 12.15C10.1099 11.7 10.4799 11.33 10.9299 11.33H19.9999C20.4499 11.33 20.8199 11.7 20.8199 12.15C20.8199 12.6 20.4499 12.97 19.9999 12.97Z" fill="#212529" style="fill:#212529;fill:color(display-p3 0.1294 0.1451 0.1608);fill-opacity:1;"/>
<path d="M19.9999 6.67H10.9299C10.4799 6.67 10.1099 6.3 10.1099 5.85C10.1099 5.4 10.4799 5.03 10.9299 5.03H19.9999C20.4499 5.03 20.8199 5.4 20.8199 5.85C20.8199 6.3 20.4499 6.67 19.9999 6.67Z" fill="#212529" style="fill:#212529;fill:color(display-p3 0.1294 0.1451 0.1608);fill-opacity:1;"/>
<path d="M4.91018 8.03C4.69018 8.03 4.48018 7.94 4.33018 7.79L3.42018 6.88C3.10018 6.56 3.10018 6.04 3.42018 5.72C3.74018 5.4 4.26018 5.4 4.58018 5.72L4.91018 6.05L7.05018 3.91C7.37018 3.59 7.89018 3.59 8.21018 3.91C8.53018 4.23 8.53018 4.75 8.21018 5.07L5.49018 7.79C5.33018 7.94 5.13018 8.03 4.91018 8.03Z" fill="#212529" style="fill:#212529;fill:color(display-p3 0.1294 0.1451 0.1608);fill-opacity:1;"/>
<path d="M4.91018 14.33C4.70018 14.33 4.49018 14.25 4.33018 14.09L3.42018 13.18C3.10018 12.86 3.10018 12.34 3.42018 12.02C3.74018 11.7 4.26018 11.7 4.58018 12.02L4.91018 12.35L7.05018 10.21C7.37018 9.89 7.89018 9.89 8.21018 10.21C8.53018 10.53 8.53018 11.05 8.21018 11.37L5.49018 14.09C5.33018 14.25 5.12018 14.33 4.91018 14.33Z" fill="#212529" style="fill:#212529;fill:color(display-p3 0.1294 0.1451 0.1608);fill-opacity:1;"/>
<path d="M4.91018 20.33C4.70018 20.33 4.49018 20.25 4.33018 20.09L3.42018 19.18C3.10018 18.86 3.10018 18.34 3.42018 18.02C3.74018 17.7 4.26018 17.7 4.58018 18.02L4.91018 18.35L7.05018 16.21C7.37018 15.89 7.89018 15.89 8.21018 16.21C8.53018 16.53 8.53018 17.05 8.21018 17.37L5.49018 20.09C5.33018 20.25 5.12018 20.33 4.91018 20.33Z" fill="#212529" style="fill:#212529;fill:color(display-p3 0.1294 0.1451 0.1608);fill-opacity:1;"/>
</svg>
