<svg width="16" height="16" viewBox="0 0 16 16" fill="none" xmlns="http://www.w3.org/2000/svg">
<path d="M14.4934 6.29334H1.33337V4.28C1.33337 2.65334 2.65337 1.33334 4.28004 1.33334H5.83337C6.92004 1.33334 7.26004 1.68667 7.69337 2.26667L8.62671 3.50667C8.83337 3.78 8.86004 3.82 9.24671 3.82H11.1067C12.6867 3.81334 14.0334 4.85334 14.4934 6.29334Z" fill="#212529" style="fill:#212529;fill:color(display-p3 0.1294 0.1451 0.1608);fill-opacity:1;"/>
<path d="M14.66 7.22667C14.6467 6.9 14.5934 6.59333 14.4934 6.29333H1.33337V11.1C1.33337 13.0667 2.93337 14.6667 4.90004 14.6667H11.1C13.0667 14.6667 14.6667 13.0667 14.6667 11.1V7.38C14.6667 7.33334 14.6667 7.27334 14.66 7.22667ZM9.66671 10.8333H8.54004V12C8.54004 12.2733 8.31337 12.5 8.04004 12.5C7.76671 12.5 7.54004 12.2733 7.54004 12V10.8333H6.33337C6.06004 10.8333 5.83337 10.6067 5.83337 10.3333C5.83337 10.06 6.06004 9.83334 6.33337 9.83334H7.54004V8.66667C7.54004 8.39334 7.76671 8.16667 8.04004 8.16667C8.31337 8.16667 8.54004 8.39334 8.54004 8.66667V9.83334H9.66671C9.94004 9.83334 10.1667 10.06 10.1667 10.3333C10.1667 10.6067 9.94004 10.8333 9.66671 10.8333Z" fill="#212529" style="fill:#212529;fill:color(display-p3 0.1294 0.1451 0.1608);fill-opacity:1;"/>
</svg>
